<svg fill="none" height="5" viewBox="0 0 26 5" width="26" xmlns="http://www.w3.org/2000/svg"><path d="m12.1961.308578c.4818-.41111 1.1246-.411005 1.6064 0 .9767.806612 2.1706 1.358272 3.3643 1.358402 1.1678 0 2.4053-.56213 3.3603-1.358402.5166-.44239 1.2203-.4055683 1.7022.088867.625.619205 1.4106 1.092925 2.1963 1.311525.7466.20815 1.2115 1.10297 1.0381 1.99805-.1737.89508-.9204 1.45212-1.667 1.24414-1.0637-.29667-1.95-.8584-2.5274-1.30079-1.2589.81177-2.6701 1.34766-4.1025 1.34766-1.3847-.0001-2.6308-.51503-3.4903-.9834-.2517-.1405-.4814-.27647-.6767-.40136-.1954.12491-.4216.26604-.6777.40136-.8596.46837-2.1056.9834-3.49028.9834-1.4326-.00002-2.84359-.53608-4.10254-1.34277-.58169.43714-1.4629 1.00411-2.52637 1.30078-.7466.20815-1.493208-.34819-1.666992-1.24317-.173638-.89511.290512-1.79074 1.037112-1.99902.78134-.22377 1.57161-.69716 2.19238-1.316405.48188-.4944353 1.18553-.526052 1.70215-.088867.96374.796272 2.19648 1.358372 3.36426 1.358402 1.19378 0 2.38748-.55175 3.36428-1.358402z" fill="#38bdf8"/></svg>