<svg width="14" height="17" viewBox="0 0 14 17" fill="none" xmlns="http://www.w3.org/2000/svg">
<path d="M0 7.06763C0 4.99575 1.67813 3.31763 3.75 3.31763H4C4.55313 3.31763 5 3.7645 5 4.31763C5 4.87075 4.55313 5.31763 4 5.31763H3.75C2.78438 5.31763 2 6.102 2 7.06763V7.31763L4 7.31763C5.10312 7.31763 6 8.2145 6 9.31763L6 11.3176C6 12.4208 5.10312 13.3176 4 13.3176H2C0.896875 13.3176 0 12.4208 0 11.3176V10.3176V9.31763V7.06763ZM8 7.06763C8 4.99575 9.67812 3.31763 11.75 3.31763H12C12.5531 3.31763 13 3.7645 13 4.31763C13 4.87075 12.5531 5.31763 12 5.31763H11.75C10.7844 5.31763 10 6.102 10 7.06763V7.31763L12 7.31763C13.1031 7.31763 14 8.2145 14 9.31763V11.3176C14 12.4208 13.1031 13.3176 12 13.3176H10C8.89687 13.3176 8 12.4208 8 11.3176V10.3176V9.31763V7.06763Z" fill="#3B82F6"/>
</svg>
